<?xml version="1.0" encoding="utf-8"?>
<!-- Generator: Adobe Illustrator 22.0.1, SVG Export Plug-In . SVG Version: 6.00 Build 0)  -->
<svg version="1.1" xmlns="http://www.w3.org/2000/svg" xmlns:xlink="http://www.w3.org/1999/xlink" x="0px" y="0px"
	 viewBox="0 0 300 300" style="enable-background:new 0 0 300 300;" xml:space="preserve">
<style type="text/css">
	.st0{display:none;}
	.st1{display:inline;opacity:0.5;}
	.st2{fill:#808080;}
	.st3{fill:#C19200;}
	.st4{fill:#006A97;}
	.st5{fill:#74D1F6;}
	.st6{fill:#FFFFFF;}
	.st7{fill:#003D5B;}
	.st8{fill:#164373;}
	.st9{fill:#4D4D4D;}
	.st10{fill:#FFABDA;}
	.st11{fill:none;stroke:#000000;stroke-miterlimit:10;}
	.st12{fill:#006A98;stroke:#1A1A1A;stroke-miterlimit:10;}
	.st13{fill:#006A99;stroke:#1A1A1A;stroke-miterlimit:10;}
	.st14{fill:#023D5B;stroke:#1A1A1A;stroke-miterlimit:10;}
	.st15{fill:#75D1F6;stroke:#231F20;stroke-miterlimit:10;}
	.st16{fill:none;stroke:#231F20;stroke-miterlimit:10;}
	.st17{fill:#231F20;stroke:#231F20;stroke-miterlimit:10;}
	.st18{fill:#FFFFFF;stroke:#231F20;stroke-miterlimit:10;}
	.st19{fill:#1A1A1A;stroke:#231F20;stroke-miterlimit:10;}
	.st20{fill:#FFFFFF;stroke:#1A1A1A;stroke-miterlimit:10;}
	.st21{fill:#4D4D4E;stroke:#231F20;stroke-miterlimit:10;}
	.st22{fill:#808080;stroke:#231F20;stroke-miterlimit:10;}
	.st23{fill:none;stroke:#1A1A1A;stroke-linecap:square;stroke-miterlimit:10;}
	.st24{fill:none;stroke:#1A1A1A;stroke-miterlimit:10;}
</style>
<g id="Original" class="st0">
	<g class="st1">
		<path class="st2" d="M171.6,219.4c-1.3,0.8-2.9,1.5-4.6,1.8c-0.1,0-0.2,0-0.4,0.1C168.4,220.9,170.1,220.2,171.6,219.4z"/>
		<path class="st2" d="M70.5,155.2c-0.9-1.2-1.6-2.8-2-4.5c0-0.1-0.1-0.3-0.1-0.4C68.9,152.1,69.6,153.8,70.5,155.2z"/>
		<g>
			<path class="st3" d="M240.3,104.5c-0.6,3.8-2.2,10.2-6.8,16.8c-0.6,0.9-1.2,1.7-1.9,2.5c0-1.8-0.2-4.6-1.2-7.8
				c-1.2-3.5-3-6-4.3-7.5C232.2,107.7,237,105.9,240.3,104.5z"/>
			<path class="st3" d="M230.4,116c1.1,3.2,1.3,5.9,1.2,7.8c-1.5,1.9-3.2,3.5-4.8,5c-0.4-3.1-1.2-6.8-2.5-10.9
				c-1.1-3.4-2.4-6.4-3.7-8.9c0.4,0,0.8,0,1.3,0c1.5-0.1,2.9-0.2,4.2-0.4C227.4,110,229.2,112.5,230.4,116z"/>
			<path class="st4" d="M230.4,91.8L230.4,91.8l-9.2-2.3l-24.5-17.8c0.3-0.6,0.5-1.2,0.6-1.9l0.1,0L230.4,91.8z"/>
			<path class="st3" d="M224.3,117.8c1.3,4.1,2.1,7.8,2.5,10.9c-2.1,1.9-4.2,3.3-6.2,4.5c-0.3-3.4-0.9-7.5-2.4-12.1
				c-1.6-5.2-3.7-9.4-5.5-12.5c2.3,0.3,5,0.5,7.8,0.4C221.9,111.4,223.2,114.4,224.3,117.8z"/>
			<path class="st3" d="M218.3,121.1c1.4,4.6,2.1,8.8,2.4,12.1c-2.5,1.5-4.7,2.5-6.1,3.1c-0.7-10.6-3.8-20.4-8.6-29c0,0,0-0.1,0-0.1
				c1.9,0.5,4.2,1,6.9,1.4C214.6,111.7,216.7,115.9,218.3,121.1z"/>
			<path class="st5" d="M179.4,80.3c2.4,1.4,4.7,3,6.9,4.7c7.9,5.9,14.6,13.4,19.5,22.2c1.9,4.3,3.7,9.3,5.4,14.9
				c1.5,5.1,2.5,9.8,3.3,14.1h0c0.1,1.5,0.1,2.9,0.1,4.4c0,19.8-8.1,37.6-21.3,50.4c-6.3-7.4-14.2-16-23.9-24.8l-19.2-95.7
				c0,0,0.1,0,0.1,0C160.6,71.6,170.5,75,179.4,80.3z"/>
			<path class="st5" d="M199,151.3c3.8-6.6,3.6-13.9-0.4-16.3c-4.1-2.3-10.5,1.1-14.3,7.8c-3.8,6.6-3.6,13.9,0.4,16.3
				C188.8,161.4,195.2,158,199,151.3z"/>
			<path class="st3" d="M214.5,136.2L214.5,136.2c-0.8-4.3-1.8-9.1-3.3-14.1c-1.6-5.6-3.5-10.6-5.4-14.9
				C210.8,115.8,213.9,125.6,214.5,136.2z"/>
			<path d="M198.6,135.1c4.1,2.4,4.3,9.6,0.4,16.3c-3.8,6.6-10.2,10.1-14.3,7.8c-4.1-2.3-4.3-9.6-0.4-16.3
				C188.1,136.2,194.5,132.7,198.6,135.1z"/>
			<path d="M199,146.8c1.6-3.1,1.3-6.3-0.6-7.3c-1.9-1-4.7,0.7-6.2,3.8c-1.6,3.1-1.3,6.3,0.6,7.3C194.6,151.5,197.4,149.8,199,146.8
				z"/>
			<path class="st6" d="M198.4,139.5c1.9,1,2.1,4.2,0.6,7.3c-1.6,3.1-4.4,4.8-6.2,3.8c-1.9-1-2.1-4.2-0.6-7.3
				C193.8,140.2,196.6,138.5,198.4,139.5z"/>
			<path class="st7" d="M196.7,71.7c-0.2,0.3-0.4,0.6-0.6,0.8c-0.8,0.8-1.9,1.3-3.1,1.3c-2.3,0-4.2-1.9-4.2-4.2c0-1,0.4-1.9,0.9-2.7
				c0.1-0.1,0.2-0.3,0.3-0.3c0.5-0.5,1.1-0.8,1.8-1c0.4-0.1,0.8-0.2,1.2-0.2c2.3,0,4.2,1.9,4.2,4.2c0,0.1,0,0.1,0,0.2
				C197.2,70.5,197,71.2,196.7,71.7z"/>
			<path class="st4" d="M196.1,72.5L186.4,85c-2.2-1.7-4.6-3.2-6.9-4.7L189.8,67c-0.6,0.7-0.9,1.7-0.9,2.7c0,2.3,1.9,4.2,4.2,4.2
				C194.3,73.8,195.4,73.3,196.1,72.5L196.1,72.5z"/>
			<path class="st8" d="M193.4,191.1l-23.7-24l-0.2-0.9C179.3,175.1,187.1,183.6,193.4,191.1z"/>
			<path class="st8" d="M169.7,167.1l23.7,24c-0.8,0.8-1.6,1.6-2.4,2.3c-6-7.3-12.1-14-20.4-21.9L169.7,167.1z"/>
			<path class="st4" d="M191.8,65.4l0,0.2c-0.7,0.2-1.3,0.5-1.8,1l-32.3-21.5l0,0l9,2.3L191.8,65.4z"/>
			<path class="st5" d="M170.6,171.5c8.3,7.9,14.4,14.6,20.4,21.9c-4.2,3.8-8.9,7-13.9,9.7c-0.1-0.1-0.1-0.1-0.1-0.2L170.6,171.5z"
				/>
			<path class="st9" d="M178.6,206.8c0.9,4.9-2,9.8-7,12.6c2.4-1.6,3.8-3.8,3.4-6c-0.6-3.4-5.2-5.4-10.3-4.4
				c-5.1,0.9-8.7,4.4-8.1,7.8c0.6,3.3,5,5.3,9.9,4.5c-0.1,0-0.3,0.1-0.4,0.1c-8.1,1.5-15.6-2.6-16.8-9.1c-0.1-0.4-0.1-0.8-0.1-1.2
				c0.1,0,0.1,0,0.2,0l-0.2-0.2c-0.2-6,5.1-11.7,12.6-13.1c6.3-1.1,12.2,1,15.1,5.1l0.1,0.3c0,0,0.1,0,0.1-0.1
				C177.8,204.2,178.4,205.4,178.6,206.8z"/>
			<path class="st9" d="M177.1,203C177,203.1,177,203.1,177.1,203l-0.1-0.2C177,202.9,177,203,177.1,203z"/>
			<path class="st5" d="M170.6,171.5l6.3,31.4c-2.9-4.1-8.8-6.3-15.1-5.1c-7.5,1.4-12.8,7.1-12.6,13.1l-30.3-20.9
				c6,1,10.8-0.1,11.3-0.2c4.8-1.6,12.4-4.8,20.1-11.4c5.8-5,9.6-10.2,12.1-14.3C165.4,166.6,168.1,169.1,170.6,171.5z"/>
			<path class="st2" d="M175,213.4c0.4,2.2-1,4.4-3.4,6c0,0,0,0,0,0c-1.5,0.8-3.2,1.5-5,1.8c-4.9,0.8-9.3-1.2-9.9-4.5
				c-0.6-3.4,3-6.9,8.1-7.8C169.8,208,174.4,210,175,213.4z"/>
			<path class="st8" d="M169.7,167.1l0.9,4.3c-2.5-2.4-5.2-4.8-8.2-7.5c0.6-1,1.1-1.9,1.5-2.7L169.7,167.1z"/>
			<path class="st6" d="M169.6,166.2l0.2,0.9l-5.8-5.8c0,0,0,0,0,0C165.9,162.9,167.8,164.6,169.6,166.2z"/>
			<path class="st5" d="M150.3,70.5l19.2,95.7c-1.8-1.7-3.6-3.3-5.6-5l-0.2-0.2c-6.7-5.8-14.2-11.7-22.5-17.4
				c-0.6-0.4-1.2-0.8-1.8-1.2c-6.2-4.2-12.4-8-18.4-11.4h0l-0.4-0.2c-11.8-6.7-23-11.7-32.8-15.6L118.8,75L150.3,70.5z"/>
			<path class="st5" d="M138.4,107c4.3-7.4,4.1-15.5-0.5-18.2c-4.6-2.6-11.7,1.3-16,8.7c-4.3,7.4-4.1,15.6,0.5,18.2
				C127,118.3,134.2,114.4,138.4,107z"/>
			<path class="st10" d="M164,161.3C164,161.3,164,161.3,164,161.3l-0.2-0.2L164,161.3z"/>
			<path class="st10" d="M141.3,143.7c8.3,5.7,15.8,11.6,22.5,17.4l0.2,0.2c-0.4,0.8-1,1.7-1.5,2.7c-2.5,4.1-6.3,9.4-12.1,14.3
				c-7.7,6.6-15.3,9.8-20.1,11.4c-0.4,0.1-5.3,1.2-11.3,0.2l-18.2-12.5c-3.9-6.7-4.7-15-2-22.6c1.3-3.4,4-9.4,9.5-14.9
				c3.2-3.2,6.5-5.5,9.3-7c1.3-0.7,2.5-1.3,3.5-1.7h0c6,3.4,12.1,7.2,18.4,11.4C140.1,142.9,140.7,143.3,141.3,143.7z"/>
			<path class="st3" d="M150.5,70.5c0,0-0.1,0-0.1,0c-0.4,0-0.9-0.1-1.3-0.1c-0.3,0-0.6-0.1-1-0.1c-0.6,0-1.1-0.1-1.7-0.1
				c0,0,0,0-0.1,0c-0.6,0-1.2-0.1-1.8-0.1c-0.1,0-0.2,0-0.3,0c-0.2,0-0.4,0-0.6,0c-0.6,0-1.3,0-1.9,0c-0.4,0-0.9,0-1.3,0.1
				c-0.5,0-1.1,0.1-1.6,0.1c-1,0.1-2.1,0.2-3.1,0.3c-0.6,0.1-1.1,0.1-1.7,0.2c-0.5,0.1-1,0.2-1.5,0.2c-2.8,0.5-5.4,1.1-7.7,1.8
				c-0.5,0.1-0.9,0.3-1.4,0.4c0,0-0.1,0-0.1,0c-0.5,0.2-1,0.3-1.5,0.5c-1,0.3-1.8,0.7-2.7,1c0.4-1.7,1.1-4,2.1-6.6
				c2.8-1.4,7.3-3.3,13.2-4c5.8-0.7,10.6,0.1,13.6,0.8C148.7,67.2,149.6,69,150.5,70.5z"/>
			<path class="st5" d="M118.8,75c0.1,0,0.2-0.1,0.3-0.1c0.8-0.3,1.7-0.7,2.7-1c0.5-0.2,1-0.3,1.5-0.5c0,0,0.1,0,0.1,0
				c0.5-0.1,0.9-0.3,1.4-0.4c2.5-0.8,5.1-1.4,7.7-1.8c0.5-0.1,1-0.2,1.5-0.2c0.6-0.1,1.1-0.2,1.7-0.2c1.1-0.1,2.1-0.2,3.1-0.3
				c0.5,0,1.1-0.1,1.6-0.1c0.4,0,0.9,0,1.3-0.1c0.6,0,1.3,0,1.9,0c0.3,0,0.6,0,1,0c0.6,0,1.2,0,1.8,0.1c0,0,0,0,0.1,0
				c0.6,0,1.2,0.1,1.7,0.1c0.3,0,0.6,0,1,0.1c0.4,0,0.9,0.1,1.3,0.1L118.8,75z"/>
			<path class="st9" d="M149.5,211c-0.1,0-0.1,0-0.2,0c0-0.1,0-0.1,0-0.2L149.5,211z"/>
			<path class="st5" d="M149.2,210.8c0,0.1,0,0.1,0,0.2c-1.7,0.1-3.4,0.2-5.1,0.2c-32,0-59-21.3-67.6-50.4c0.1,0,0.1,0.1,0.2,0.1
				l24,16.6c1.1,1.9,2.5,3.8,4.1,5.4c4.4,4.4,9.6,6.4,14.1,7.2L149.2,210.8z"/>
			<path class="st3" d="M145.9,59.7c0.6,2,1.3,3.8,2,5.4c-3-0.7-7.8-1.5-13.6-0.8c-5.9,0.7-10.4,2.6-13.2,4c0.9-2.3,2-4.8,3.6-7.4
				c2.5-0.9,6.2-2,10.9-2.3C139.9,58.5,143.4,59.1,145.9,59.7z"/>
			<path class="st3" d="M145.5,58.3c0.1,0.5,0.3,1,0.4,1.5c-2.5-0.6-6-1.2-10.3-1c-4.6,0.2-8.4,1.3-10.9,2.3c1.2-2,2.6-4.1,4.3-6.2
				c1.9-0.6,4.6-1.3,7.9-1.3c3.1-0.1,5.7,0.4,7.6,0.9C144.8,55.6,145.1,56.9,145.5,58.3z"/>
			<path class="st3" d="M144.5,70.2c0.6,0,1.2,0,1.8,0.1C145.7,70.2,145.1,70.2,144.5,70.2z"/>
			<path class="st3" d="M144.5,70.2c-0.3,0-0.6,0-1,0c0.2,0,0.4,0,0.6,0C144.3,70.2,144.4,70.2,144.5,70.2z"/>
			<path class="st3" d="M143.3,42.8c0.1,3.2,0.4,7.1,1.3,11.5c-1.9-0.5-4.5-0.9-7.6-0.9c-3.3,0.1-6,0.7-7.9,1.3
				C134.1,48.5,139.6,44.8,143.3,42.8z"/>
			<path d="M138,88.8c4.5,2.6,4.8,10.8,0.5,18.2c-4.3,7.4-11.4,11.3-16,8.7c-4.6-2.6-4.8-10.8-0.5-18.2
				C126.3,90.1,133.4,86.2,138,88.8z"/>
			<path d="M138.1,102.4c2.1-3.7,2-7.7-0.2-9c-2.3-1.3-5.8,0.6-7.9,4.3c-2.1,3.7-2,7.7,0.2,9C132.4,108,135.9,106.1,138.1,102.4z"/>
			<path class="st6" d="M137.8,93.4c2.3,1.3,2.4,5.3,0.2,9c-2.1,3.7-5.7,5.6-7.9,4.3c-2.2-1.3-2.4-5.3-0.2-9
				C132,94,135.6,92.1,137.8,93.4z"/>
			<path class="st8" d="M120.8,130.9l0.4,0.2c-1,0.4-2.2,1-3.5,1.7c-11.3-6.3-22-11.2-31.6-15l1.6-2L120.8,130.9z"/>
			<path class="st8" d="M120.8,130.9l-33.2-15.1l0.4-0.5C97.8,119.2,108.9,124.3,120.8,130.9z"/>
			<path class="st10" d="M100.8,177.4l18.2,12.5c-4.5-0.8-9.6-2.7-14.1-7.2C103.3,181.1,101.9,179.3,100.8,177.4z"/>
			<path class="st5" d="M118.8,75l-30.9,40.3c-2.9-1.1-5.6-2.2-8.3-3.1c0.9-2.1,1.8-3.7,2.3-4.8C89.8,93.2,103.1,81.3,118.8,75z"/>
			<line class="st5" x1="100.2" y1="177" x2="77.9" y2="161.6"/>
			<path class="st5" d="M77.9,161.6l-1.1-0.8c2.1,0.9,4.4,1.2,6.7,0.7c6.4-1.6,10.1-9.3,8.2-17.3c-1.9-8-8.7-13.2-15.2-11.6
				c-0.8,0.2-1.6,0.5-2.4,0.9l0-0.1l12-15.7c9.6,3.8,20.2,8.7,31.6,15c-2.8,1.5-6.1,3.8-9.3,7c-5.6,5.6-8.3,11.5-9.5,14.9
				c-2.7,7.6-1.9,15.9,2,22.6l-0.5-0.4"/>
			<path class="st9" d="M75.9,158.4c0.3,0,0.5-0.1,0.8-0.1c3.3-0.8,5.1-5.5,3.8-10.5c-1.1-4.3-4-7.5-6.9-7.7c-0.4,0-0.9,0-1.3,0.1
				c-3.3,0.8-5,5.3-3.9,10.2c0-0.1-0.1-0.3-0.1-0.4c-1.7-6.9,0.8-13.7,5.8-16.4c0.7-0.4,1.5-0.7,2.4-0.9c6.4-1.6,13.3,3.6,15.2,11.6
				c1.9,8-1.7,15.7-8.2,17.3c-2.3,0.6-4.6,0.3-6.7-0.7l-0.2-0.2c0,0,0,0,0,0.1c-2.4-1.1-4.5-3-6.1-5.5C72,157.3,74,158.5,75.9,158.4
				z"/>
			<path class="st8" d="M87.9,115.3l-0.4,0.5l-7.9-3.6C82.3,113.2,85.1,114.2,87.9,115.3z"/>
			<path class="st8" d="M79.7,112.2l7.9,3.6l-1.6,2c-2.6-1-5.1-2-7.5-2.9C78.9,114,79.3,113.1,79.7,112.2z"/>
			<path class="st5" d="M86,117.8l-12,15.7c0.8-7.5,2.7-13.8,4.5-18.5C80.9,115.8,83.4,116.8,86,117.8z"/>
			<path class="st2" d="M73.7,140.1c2.9,0.2,5.8,3.4,6.9,7.7c1.2,5-0.5,9.7-3.8,10.5c-0.3,0.1-0.5,0.1-0.8,0.1
				c-1.9,0.1-3.9-1.1-5.4-3.2c-0.9-1.4-1.6-3.1-2.1-4.8c-1.1-4.9,0.7-9.4,3.9-10.2C72.8,140.1,73.2,140.1,73.7,140.1z"/>
			<path class="st9" d="M76.8,160.8c-0.1,0-0.1-0.1-0.2-0.1c0,0,0,0,0-0.1L76.8,160.8z"/>
			<path class="st11" d="M214.5,136.2c0.1,1.5,0.1,2.9,0.1,4.4c0,19.8-8.1,37.6-21.3,50.4c-0.8,0.8-1.6,1.6-2.4,2.3
				c-4.2,3.8-8.9,7-13.9,9.7"/>
			<path class="st11" d="M150.5,70.5c10.1,1.1,20,4.5,28.9,9.8c2.4,1.4,4.7,3,6.9,4.7c7.9,5.9,14.6,13.4,19.5,22.2"/>
			<path class="st11" d="M149,70.4c0.4,0,0.9,0.1,1.3,0.1"/>
			<path class="st11" d="M146.3,70.2c0.6,0,1.2,0.1,1.7,0.1"/>
			<path class="st11" d="M138.7,70.3c0.5,0,1.1-0.1,1.6-0.1c0.4,0,0.9,0,1.3-0.1"/>
			<path class="st11" d="M123.3,73.4c0.5-0.1,0.9-0.3,1.4-0.4c2.5-0.8,5.1-1.4,7.7-1.8c0.5-0.1,1-0.2,1.5-0.2"/>
			<path class="st11" d="M121.7,73.9c0.5-0.2,1-0.3,1.5-0.5"/>
			<path class="st11" d="M118.8,75c0.1,0,0.2-0.1,0.3-0.1"/>
			<path class="st11" d="M74,133.5c0.8-7.5,2.7-13.8,4.5-18.5c0.4-1,0.8-1.9,1.1-2.8c0.9-2.1,1.8-3.7,2.3-4.8
				c7.8-14.2,21.1-26.1,36.8-32.4"/>
			<path class="st11" d="M149.2,211c-1.7,0.1-3.4,0.2-5.1,0.2c-32,0-59-21.3-67.6-50.4"/>
			<path class="st11" d="M138.4,107c-4.3,7.4-11.4,11.3-16,8.7c-4.6-2.6-4.8-10.8-0.5-18.2c4.3-7.4,11.4-11.3,16-8.7
				C142.5,91.5,142.7,99.6,138.4,107z"/>
			<path class="st11" d="M199,151.3c-3.8,6.6-10.2,10.1-14.3,7.8c-4.1-2.3-4.3-9.6-0.4-16.3c3.8-6.6,10.2-10.1,14.3-7.8
				C202.6,137.4,202.8,144.7,199,151.3z"/>
			<path class="st11" d="M138.1,102.4c-2.1,3.7-5.7,5.6-7.9,4.3c-2.2-1.3-2.4-5.3-0.2-9c2.1-3.7,5.7-5.6,7.9-4.3
				C140.1,94.7,140.2,98.7,138.1,102.4z"/>
			<path class="st11" d="M199,146.8c-1.6,3.1-4.4,4.8-6.2,3.8c-1.9-1-2.1-4.2-0.6-7.3c1.6-3.1,4.4-4.8,6.2-3.8
				C200.3,140.4,200.6,143.7,199,146.8z"/>
			<path class="st11" d="M164,161.3c1.9,1.7,3.8,3.3,5.6,5c9.7,8.8,17.6,17.4,23.9,24.8"/>
			<line class="st11" x1="193.4" y1="191.1" x2="193.4" y2="191.1"/>
			<path class="st11" d="M79.7,112.2c2.7,0.9,5.4,2,8.3,3.1c9.9,3.9,21,8.9,32.8,15.6"/>
			<path class="st11" d="M121.1,131.1c-1,0.4-2.2,1-3.5,1.7c-2.8,1.5-6.1,3.8-9.3,7c-5.6,5.6-8.3,11.5-9.5,14.9
				c-2.7,7.6-1.9,15.9,2,22.6c1.1,1.9,2.5,3.8,4.1,5.4c4.4,4.4,9.6,6.4,14.1,7.2c6,1,10.8-0.1,11.3-0.2c4.8-1.6,12.4-4.8,20.1-11.4
				c5.8-5,9.6-10.2,12.1-14.3c0.6-1,1.1-1.9,1.5-2.7c0,0,0,0,0,0l-0.2-0.2c-6.7-5.8-14.2-11.7-22.5-17.4c-0.6-0.4-1.2-0.8-1.8-1.2
				C133.3,138.3,127.1,134.5,121.1,131.1"/>
			<polyline class="st11" points="120.8,130.9 121.1,131.1 121.1,131.1 			"/>
			<path class="st11" d="M162.4,164c3,2.6,5.7,5.1,8.2,7.5c8.3,7.9,14.4,14.6,20.4,21.9"/>
			<path class="st11" d="M78.3,114.9c0.1,0,0.1,0,0.2,0.1c2.4,0.9,4.9,1.8,7.5,2.9c9.6,3.8,20.2,8.7,31.6,15"/>
			<path class="st11" d="M124.7,161.1c1.7-2.6,3.9-5.6,6.7-8.7c3.5-3.8,7-6.6,9.9-8.6"/>
			<path class="st11" d="M166.6,221.3c-0.1,0-0.3,0.1-0.4,0.1c-8.1,1.5-15.6-2.6-16.8-9.1c-0.1-0.4-0.1-0.8-0.1-1.2
				c0-0.1,0-0.1,0-0.2c-0.2-6,5.1-11.7,12.6-13.1c6.3-1.1,12.2,1,15.1,5.1c0.1,0.1,0.1,0.1,0.1,0.2c0.8,1.1,1.3,2.4,1.6,3.8
				c0.9,4.9-2,9.8-7,12.6"/>
			<path class="st11" d="M166.6,221.3c-4.9,0.8-9.3-1.2-9.9-4.5c-0.6-3.4,3-6.9,8.1-7.8c5.1-0.9,9.7,1.1,10.3,4.4
				c0.4,2.2-1,4.4-3.4,6c0,0,0,0,0,0c-1.3,0.8-2.9,1.5-4.6,1.8C166.9,221.2,166.7,221.2,166.6,221.3z"/>
			<path class="st11" d="M68.4,150.4c0-0.1-0.1-0.3-0.1-0.4c-1.7-6.9,0.8-13.7,5.8-16.4c0.7-0.4,1.5-0.7,2.4-0.9
				c6.4-1.6,13.3,3.6,15.2,11.6c1.9,8-1.7,15.7-8.2,17.3c-2.3,0.6-4.6,0.3-6.7-0.7c-0.1,0-0.1-0.1-0.2-0.1c-2.4-1.1-4.5-3-6.1-5.5"
				/>
			<path class="st11" d="M73.7,140.1c2.9,0.2,5.8,3.4,6.9,7.7c1.2,5-0.5,9.7-3.8,10.5c-0.3,0.1-0.5,0.1-0.8,0.1
				c-1.9,0.1-3.9-1.1-5.4-3.2c-0.9-1.2-1.6-2.8-2-4.5c0-0.1-0.1-0.3-0.1-0.4c-1.1-4.9,0.7-9.4,3.9-10.2
				C72.8,140.1,73.2,140.1,73.7,140.1z"/>
			<path class="st11" d="M150.5,70.5c-0.8-1.6-1.7-3.4-2.6-5.4c-0.7-1.7-1.4-3.5-2-5.4c-0.1-0.5-0.3-1-0.4-1.5c-0.4-1.4-0.7-2.7-1-4
				c-0.9-4.4-1.2-8.4-1.3-11.5c-3.7,2.1-9.2,5.8-14.3,12c-1.7,2.1-3.1,4.2-4.3,6.2c-1.5,2.6-2.7,5.1-3.6,7.4c-1,2.6-1.7,4.9-2.1,6.6
				c0.8-0.3,1.7-0.7,2.7-1c0.5-0.2,1-0.3,1.5-0.5c0,0,0.1,0,0.1,0c0.4-0.2,0.9-0.3,1.4-0.4c2.3-0.7,4.9-1.3,7.7-1.8
				c0.5-0.1,1-0.2,1.5-0.2c0.6-0.1,1.1-0.2,1.7-0.2c1.1-0.1,2.1-0.2,3.1-0.3c0.5,0,1.1-0.1,1.6-0.1c0.4,0,0.9,0,1.3-0.1
				c0.6,0,1.3,0,1.9,0c0.3,0,0.6,0,1,0c0.6,0,1.2,0,1.8,0.1c0,0,0,0,0.1,0c0.6,0,1.2,0.1,1.7,0.1c0.3,0,0.6,0,1,0.1
				c0.5,0,0.9,0.1,1.3,0.1C150.4,70.5,150.4,70.5,150.5,70.5z"/>
			<path class="st11" d="M205.9,107.2c1.9,4.3,3.7,9.3,5.4,14.9c1.5,5.1,2.5,9.8,3.3,14.1h0c1.4-0.6,3.6-1.5,6.1-3.1
				c1.9-1.1,4-2.6,6.2-4.5c1.6-1.4,3.2-3.1,4.8-5c0.6-0.8,1.3-1.6,1.9-2.5c4.5-6.6,6.1-13,6.8-16.8c-3.2,1.4-8,3.2-14.1,4
				c-1.3,0.2-2.8,0.3-4.2,0.4c-0.4,0-0.8,0-1.3,0c-2.9,0.1-5.5-0.1-7.8-0.4c-2.7-0.3-5-0.9-6.9-1.4
				C205.9,107.2,205.9,107.2,205.9,107.2z"/>
			<path class="st11" d="M121.1,68.3c2.8-1.4,7.3-3.3,13.2-4c5.8-0.7,10.6,0.1,13.6,0.8"/>
			<path class="st11" d="M124.7,60.9c2.5-0.9,6.2-2,10.9-2.3c4.3-0.2,7.9,0.4,10.3,1"/>
			<path class="st11" d="M129,54.8c1.9-0.6,4.6-1.3,7.9-1.3c3.1-0.1,5.7,0.4,7.6,0.9"/>
			<path class="st11" d="M212.8,108.5c1.9,3.1,3.9,7.3,5.5,12.5c1.4,4.6,2.1,8.8,2.4,12.1v0"/>
			<path class="st11" d="M220.6,108.9c1.3,2.5,2.6,5.5,3.7,8.9c1.3,4.1,2.1,7.8,2.5,10.9v0"/>
			<path class="st11" d="M226.1,108.5L226.1,108.5c1.3,1.5,3.1,4,4.3,7.5c1.1,3.2,1.3,5.9,1.2,7.8v0"/>
			<path class="st11" d="M191.9,65.6c0.4-0.1,0.8-0.2,1.2-0.2c2.3,0,4.2,1.9,4.2,4.2c0,0.1,0,0.1,0,0.2c0,0.7-0.2,1.3-0.6,1.9
				c-0.2,0.3-0.4,0.6-0.6,0.8c-0.8,0.8-1.9,1.3-3.1,1.3c-2.3,0-4.2-1.9-4.2-4.2c0-1,0.4-1.9,0.9-2.7c0.1-0.1,0.2-0.3,0.3-0.3
				C190.6,66.1,191.2,65.8,191.9,65.6z"/>
			<polyline class="st11" points="189.8,67 179.4,80.3 179.3,80.5 			"/>
			<line class="st11" x1="196.1" y1="72.5" x2="186.4" y2="85"/>
			<polyline class="st11" points="191.8,65.4 166.9,47.4 166.8,47.3 			"/>
			<polyline class="st11" points="190.1,66.6 157.9,45.1 157.7,45 			"/>
			<polyline class="st11" points="157.9,45.1 166.9,47.4 167,47.4 			"/>
			<polyline class="st11" points="196.4,71.5 196.7,71.7 221.2,89.5 221.3,89.6 			"/>
			<polyline class="st11" points="197.4,69.8 230.4,91.8 230.5,91.9 			"/>
			<polyline class="st11" points="230.4,91.8 221.2,89.5 221.1,89.5 			"/>
			<line class="st11" x1="118.8" y1="75" x2="119.2" y2="74.9"/>
		</g>
	</g>
</g>
<g id="Remake">
	<g id="helicopter">
		<g id="Shaft">
			
				<rect x="184.7" y="56" transform="matrix(0.613 -0.7901 0.7901 0.613 29.6878 186.1472)" class="st12" width="40.4" height="13.6"/>
		</g>
		<g id="Blade">
			<path class="st13" d="M266.1,86.4c-34.3-25.6-68.6-51.1-102.9-76.7c3.6,0.5,7.2,0.9,10.7,1.4c35.2,26.1,70.4,52.2,105.6,78.3
				C275,88.3,270.5,87.4,266.1,86.4z"/>
		</g>
		<g id="Button">
			<circle class="st14" cx="216.6" cy="47.6" r="6.9"/>
		</g>
	</g>
	<circle id="Body_2_" class="st15" cx="136.8" cy="163.2" r="115.1"/>
	<g id="Mouth_Strip">
		<g id="XMLID_7_">
			<g>
				<path class="st8" d="M217.3,245.5l-4,3.7c-20.8-24.2-51.5-54.8-94.1-82.7C86.5,145,55.5,130.9,30,121.4l1.8-4.5
					c24.7,8.8,54.6,21.9,86.1,41.9C163.6,187.7,196,220.2,217.3,245.5z"/>
			</g>
			<g>
				<path class="st16" d="M31.9,116.9c24.7,8.8,54.6,21.9,86.1,41.9c45.7,28.9,78,61.4,99.3,86.7"/>
				<path class="st16" d="M30,121.4c25.4,9.4,56.4,23.6,89.2,45.1c42.5,27.9,73.3,58.5,94.1,82.7"/>
				<line class="st16" x1="31.9" y1="116.9" x2="30" y2="121.4"/>
				<line class="st16" x1="217.3" y1="245.5" x2="213.3" y2="249.2"/>
			</g>
		</g>
	</g>
	<g id="Tongue">
		<g id="XMLID_2_">
			<g>
				<path class="st10" d="M169.3,196.9c-6.5,11.3-18.4,27.9-38.4,39c-7.2,4-15.5,8.5-27.1,8.3c-14.5-0.2-25-7.6-29.2-10.9
					c-3.2-3.1-11.2-11.6-13.5-24.9c-1.9-11.1,1.1-19.8,2.8-24.4c8.3-22.8,29.5-33.4,35.6-36.2c10.2,5.8,20.9,12.4,32.1,20
					C145.8,177.6,158.4,187.5,169.3,196.9z"/>
			</g>
			<g>
				<path class="st16" d="M99.5,147.8c10.2,5.8,20.9,12.4,32.1,20c14.3,9.8,26.8,19.7,37.7,29.2"/>
				<path class="st16" d="M99.5,147.8c-6.1,2.8-27.3,13.4-35.6,36.2c-1.7,4.6-4.7,13.3-2.8,24.4c2.3,13.3,10.3,21.8,13.5,24.9"/>
				<path class="st16" d="M74.5,233.3c4.2,3.3,14.7,10.7,29.2,10.9c11.6,0.2,20-4.3,27.1-8.3c20-11.1,31.9-27.7,38.4-39"/>
			</g>
		</g>
		<path class="st16" d="M132.3,168.3c-4.5,3.2-9.9,7.5-15.3,13.2c-5.1,5.3-8.9,10.6-11.8,15"/>
	</g>
	<g id="Eyes">
		
			<ellipse id="L_Eye_2_" transform="matrix(0.5286 -0.8489 0.8489 0.5286 -31.9892 144.3642)" class="st17" cx="114" cy="101" rx="25.8" ry="16.2"/>
		
			<ellipse id="L_Pupil_2_" transform="matrix(0.4835 -0.8754 0.8754 0.4835 -23.1343 155.3049)" class="st18" cx="120" cy="97.3" rx="11.5" ry="6.8"/>
		
			<ellipse id="R_Eye_2_" transform="matrix(0.474 -0.8805 0.8805 0.474 -40.4989 279.9028)" class="st19" cx="214" cy="173.8" rx="23.4" ry="14.8"/>
		
			<ellipse id="R_Pupil_2_" transform="matrix(0.474 -0.8805 0.8805 0.474 -34.021 283.8586)" class="st20" cx="220.6" cy="170.4" rx="10.2" ry="5.9"/>
	</g>
	<g id="Feet">
		<g id="L_Leg">
			
				<ellipse transform="matrix(0.9753 -0.2211 0.2211 0.9753 -37.6232 11.4344)" class="st21" cx="32.3" cy="173.8" rx="19.7" ry="24.2"/>
		</g>
		
			<ellipse id="L_Foot_2_" transform="matrix(0.968 -0.2511 0.2511 0.968 -43.7399 11.6289)" class="st22" cx="23.7" cy="177.2" rx="9.9" ry="15.2"/>
		
			<ellipse id="R_Leg_2_" transform="matrix(0.9729 -0.2314 0.2314 0.9729 -59.2346 46.6618)" class="st21" cx="169.3" cy="275.9" rx="25.3" ry="20.1"/>
		
			<ellipse id="R_Foot_2_" transform="matrix(0.9623 -0.272 0.272 0.9623 -70.8426 57.8558)" class="st22" cx="173.3" cy="284.5" rx="15.8" ry="10.2"/>
	</g>
	<g id="Horns">
		<g id="R_Horn">
			<g id="XMLID_4_">
				<g>
					<path class="st3" d="M239.8,110.6l-0.6,0.3c3.2,6.2,6.8,14.6,9.4,24.9c2.6,10.4,3.5,19.5,3.6,26.4l0.1,0
						c7.2-4.5,19.7-13.5,29.1-28.8c6.6-10.8,9.4-20.8,10.6-27.7c-7.4,2.4-17.4,4.8-29.5,5.6C253.8,111.8,246.1,111.3,239.8,110.6z"
						/>
				</g>
				<g>
					<path class="st23" d="M239.8,110.6c6.3,0.8,14,1.2,22.7,0.6c12.1-0.8,22.1-3.2,29.5-5.6c-1.2,6.9-4,16.9-10.6,27.7
						c-9.4,15.3-21.9,24.3-29.1,28.8"/>
					<path class="st24" d="M252.3,162.4c0-0.1,0-0.2,0-0.3c-0.2-6.9-1-16-3.6-26.4c-2.6-10.3-6.2-18.6-9.4-24.9
						c-0.1-0.2-0.2-0.4-0.3-0.5"/>
				</g>
			</g>
			<path class="st24" d="M280.1,135.5c-0.2-3.4-0.8-8.1-2.8-13.3c-2-5.3-4.6-9.4-6.7-12.2"/>
			<path class="st24" d="M272.1,146c0-4.6-0.6-11.4-3.3-19c-2.5-7-5.9-12.3-8.6-16"/>
			<path class="st24" d="M261.3,155.7c0.6-5.4,0.9-13.9-1.9-23.9c-2.6-9.2-6.8-16.1-10-20.5"/>
		</g>
		<g id="L_Horn">
			<g id="XMLID_1_">
				<g>
					<path class="st3" d="M146.4,47.8l0,0.6c-6.6-0.5-15.2-0.6-25.3,0.7c-10.2,1.3-18.6,3.6-24.9,5.8l0-0.1
						c1.8-7.4,6.2-20.5,17.2-33.2C121,12.5,129.2,7,135,3.7c0.1,6.8,0.9,15.8,3.9,25.8C141.1,36.8,143.8,42.9,146.4,47.8z"/>
				</g>
				<g>
					<path class="st23" d="M146.4,47.8c-2.6-4.9-5.3-11-7.4-18.2c-2.9-10.1-3.8-19-3.9-25.8c-5.8,3.3-14.1,8.8-21.8,17.8
						C102.3,34.2,98,47.3,96.1,54.7"/>
					<path class="st24" d="M95.8,54.9c0.1,0,0.2-0.1,0.3-0.1c6.3-2.2,14.7-4.5,24.9-5.8c10-1.3,18.7-1.2,25.3-0.7c0.2,0,0.4,0,0.6,0
						"/>
				</g>
			</g>
		</g>
		<g id="L_Horn_Stripes">
			<path class="st24" d="M111.7,23.3c3.1-1,7.5-2,12.9-2.2c5.4-0.2,9.9,0.6,13,1.4"/>
			<path class="st24" d="M104.7,33.3c4.2-1.5,10.5-3.3,18.2-3.6c7-0.3,12.9,0.7,17,1.7"/>
			<path class="st24" d="M99.1,45.3c4.7-2.3,12.3-5.4,22.1-6.4c9.1-1,16.6,0.2,21.5,1.3"/>
		</g>
	</g>
</g>
</svg>
